<?xml version="1.0" encoding="utf-8"?>
<!-- Generator: Adobe Illustrator 27.1.0, SVG Export Plug-In . SVG Version: 6.00 Build 0)  -->
<svg version="1.1" id="Layer_1" xmlns="http://www.w3.org/2000/svg" xmlns:xlink="http://www.w3.org/1999/xlink" x="0px" y="0px"
	 viewBox="0 0 2000 2000" style="enable-background:new 0 0 2000 2000;" xml:space="preserve">
<style type="text/css">
	.st0{display:none;fill:none;stroke:#000000;stroke-width:11;stroke-miterlimit:10;}
	.st1{display:none;}
	.st2{display:inline;}
	.st3{fill:none;stroke:#000000;stroke-width:13;stroke-miterlimit:10;}
	.st4{display:inline;fill:none;stroke:#000000;stroke-width:13;stroke-miterlimit:10;}
	.st5{fill:url(#SVGID_1_);}
	.st6{fill:url(#SVGID_00000061469453170850992590000012816021601682263435_);}
	.st7{fill:url(#SVGID_00000076599251052365573600000006742048647630565511_);}
	.st8{fill:url(#SVGID_00000054977298084229785640000014847963852487805350_);}
	.st9{fill:url(#SVGID_00000021084892733829504640000015439347608225418133_);}
	.st10{fill:url(#SVGID_00000026859212755299169320000006055442446352523908_);}
	.st11{fill:url(#SVGID_00000145027145761786140390000018028450239864329631_);}
	.st12{fill:#110247;}
	.st13{fill:url(#SVGID_00000175295755854244750720000001890492640623629757_);}
	.st14{fill:url(#SVGID_00000047040972804442463650000007573586047716072598_);}
	.st15{fill:url(#SVGID_00000136397611956390786170000014054629081032256919_);}
	.st16{fill:url(#SVGID_00000150084785143232836050000008345657063785601712_);}
	.st17{fill:url(#SVGID_00000085941196147559446700000012821618476575930293_);}
	.st18{fill:url(#SVGID_00000039133428058806958680000001226186531211908231_);}
	.st19{fill:url(#SVGID_00000074420678738594637200000006470652383338960796_);}
	.st20{fill:#FFFFFF;}
</style>
<path class="st0" d="M1560.96,509.07c-45.17-26.08-82.83-63.73-108.9-108.9s-39.86-96.61-39.86-148.76v-11.55l158.76-91.66
	l158.76,91.66v11.55c0,52.15-13.78,103.6-39.86,148.76c-26.08,45.17-63.73,82.82-108.9,108.9l-10,5.77L1560.96,509.07z"/>
<path class="st0" d="M1570.96,470.72c-35.41-22.41-65-53.19-85.99-89.55c-21.03-36.43-32.9-77.54-34.57-119.49l120.56-69.6
	l120.56,69.6c-1.67,41.95-13.53,83.06-34.57,119.49C1635.96,417.53,1606.37,448.31,1570.96,470.72z"/>
<line class="st0" x1="1651.42" y1="307.57" x2="1758.02" y2="307.57"/>
<line class="st0" x1="1651.42" y1="281.57" x2="1758.02" y2="281.57"/>
<line class="st0" x1="1651.42" y1="333.57" x2="1758.02" y2="333.57"/>
<line class="st0" x1="1537.97" y1="428.43" x2="1449.9" y2="428.43"/>
<line class="st0" x1="1547.32" y1="402.43" x2="1431.55" y2="402.43"/>
<line class="st0" x1="1547.32" y1="454.43" x2="1431.55" y2="454.43"/>
<g>
	<g>
		<g>
			<path d="M851.84,1253.46c34.51,34.28,73.42,64.12,115.81,88.6l0.78,0.45l25.81,14.9l26.6-15.34l0,0
				c85.92-49.61,157.52-121.21,207.12-207.12l1.35-2.35l-1.35,2.35c23.09-39.99,41.12-82.59,53.79-126.67l0,0
				c4.68-16.3,8.61-32.79,11.83-49.43l3.73-19.33h-91.35v16.25l15.86,3.53c3.65-16.39,6.46-32.98,8.41-49.68l0,0.02
				c1.49-12.62,2.49-25.31,2.98-38.02l0.38-9.8L994.24,723.63L754.91,861.82l0.39,9.81c3.19,80.13,25.86,158.62,66.03,228.21l0,0.01
				c4.07,7.04,8.3,13.98,12.71,20.8l27.31-17.62c-4.11-6.37-8.07-12.86-11.88-19.44l0,0.01c-37.53-65-58.72-138.4-61.7-213.26
				l-16.23,0.65l8.12,14.07l214.59-123.9l214.59,123.9l8.12-14.07l-16.24-0.63c-0.46,11.86-1.39,23.7-2.78,35.47l0,0.02
				c-1.82,15.59-4.44,31.08-7.85,46.38l-4.4,19.78h91.94v-16.25l-15.95-3.08c-3.03,15.72-6.74,31.26-11.15,46.63l0,0
				c-11.94,41.56-28.94,81.72-50.7,119.39l0,0c-46.73,80.94-114.26,148.48-195.22,195.22l0,0l-10.35,5.97l-10.35-5.97l0,0
				c-39.94-23.07-76.63-51.2-109.16-83.51L851.84,1253.46L851.84,1253.46z"/>
			<path d="M1302.81,884.86c0.64-10.93,0.96-21.89,0.96-32.87v-30.7l-309.53-178.7L684.72,821.3V852
				c0,99.22,26.2,197.02,75.81,282.95l0.01,0.02c0.84,1.46,1.7,2.92,2.59,4.39l-0.07-0.12c10.05,17.09,20.99,33.61,32.77,49.48
				l4.87,6.56h99.34v-16.25l-11.88,11.09c28.82,30.88,61.55,58.05,97.4,80.76l8.69,5.5l8.7-5.5
				c67.64-42.81,124.14-101.58,164.23-171.03l0,0c12.34-21.36,23.02-43.56,31.99-66.39l-30.24-11.89
				c-8.39,21.33-18.36,42.07-29.89,62.02l0,0c-37.45,64.88-90.28,119.83-153.47,159.82l8.69,13.73l8.69-13.73
				c-33.5-21.22-64.1-46.62-91.03-75.48l-4.82-5.16h-98.22v16.25l13.05-9.68c-11.09-14.94-21.39-30.49-30.85-46.58l-0.09-0.15
				l0.01,0.02c-0.78-1.3-1.55-2.61-2.33-3.96l-0.29-0.5l0.3,0.52c-46.75-80.96-71.46-173.21-71.46-266.7v-11.94l277.03-159.94
				l277.03,159.94V852c0,10.34-0.31,20.67-0.91,30.97L1302.81,884.86L1302.81,884.86z"/>
			<polygon points="902.71,1079.24 902.71,909.83 1118.27,1125.4 1118.27,870.61 1085.78,870.61 1085.78,1046.94 870.22,831.38 
				870.22,1079.24 902.71,1079.24 			"/>
			
				<ellipse transform="matrix(0.0217 -0.9998 0.9998 0.0217 -282.3089 1935.1759)" cx="847.69" cy="1111.84" rx="27.76" ry="27.76"/>
			<circle cx="866.21" cy="1245.06" r="27.76"/>
			
				<ellipse transform="matrix(0.0116 -0.9999 0.9999 0.0116 141.1621 2198.9834)" cx="1182.93" cy="1028.09" rx="27.76" ry="27.76"/>
			<ellipse transform="matrix(1 -5.882073e-03 5.882073e-03 1 -5.1843 7.5886)" cx="1287.52" cy="885.17" rx="27.76" ry="27.76"/>
		</g>
	</g>
</g>
</svg>
