<?xml version="1.0" encoding="utf-8"?>
<svg xmlns="http://www.w3.org/2000/svg" viewBox="680 640 640 720" preserveAspectRatio="xMidYMid meet">
  <style>
    .logo-gradient { fill: url(#main-gradient); }
  </style>

  <linearGradient id="main-gradient" gradientUnits="userSpaceOnUse" x1="1026.1" y1="643.14" x2="1026.1" y2="1344.63">
    <stop offset="0" stop-color="#8504FE"/>
    <stop offset="1" stop-color="#DF5EFF"/>
  </linearGradient>

  <!-- Main logo paths -->
  <path class="logo-gradient" d="M851.8,1253.5c34.5,34.3,73.4,64.1,115.8,88.6l0.8,0.4l25.8,14.9l26.6-15.3c85.9-49.6,157.5-121.2,207.1-207.1l1.4-2.4
      c23.1-40,41.1-82.6,53.8-126.7c4.7-16.3,8.6-32.8,11.8-49.4l3.7-19.3h-91.4v16.2l15.9,3.5c3.6-16.4,6.5-33,8.4-49.7
      c1.5-12.6,2.5-25.3,3-38l0.4-9.8L994.2,723.6L754.9,861.8l0.4,9.8c3.2,80.1,25.9,158.6,66,228.2c4.1,7,8.3,14,12.7,20.8l27.3-17.6
      c-4.1-6.4-8.1-12.9-11.9-19.4c-37.5-65-58.7-138.4-61.7-213.3l-16.2,0.6l8.1,14.1l214.6-123.9l214.6,123.9l8.1-14.1l-16.2-0.6
      c-0.5,11.9-1.4,23.7-2.8,35.5c-1.8,15.6-4.4,31.1-7.8,46.4l-4.4,19.8h91.9v-16.2l-16-3.1c-3,15.7-6.7,31.3-11.1,46.6
      c-11.9,41.6-28.9,81.7-50.7,119.4c-46.7,80.9-114.3,148.5-195.2,195.2l-10.4,6l-10.4-6c-39.9-23.1-76.6-51.2-109.2-83.5L851.8,1253.5z"/>
  <path class="logo-gradient" d="M1302.8,884.9c0.6-10.9,1-21.9,1-32.9v-30.7l-309.5-178.7L684.7,821.3V852c0,99.2,26.2,197,75.8,283
      c0.8,1.5,1.7,2.9,2.6,4.4c10,17.1,21,33.6,32.8,49.5l4.9,6.6h99.3v-16.2l-11.9,11.1c28.8,30.9,61.6,58.1,97.4,80.8l8.7,5.5l8.7-5.5
      c67.6-42.8,124.1-101.6,164.2-171c12.3-21.4,23-43.6,32-66.4l-30.2-11.9c-8.4,21.3-18.4,42.1-29.9,62c-37.5,64.9-90.3,119.8-153.5,159.8
      l8.7,13.7l8.7-13.7c-33.5-21.2-64.1-46.6-91-75.5l-4.8-5.2h-98.2v16.2l13-9.7c-11.1-14.9-21.4-30.5-30.9-46.6
      c-46.7-81-71.5-173.2-71.5-266.7v-11.9l277-159.9l277,159.9V852c0,10.3-0.3,20.7-0.9,31L1302.8,884.9z"/>
  <polygon class="logo-gradient" points="902.7,1079.2 902.7,909.8 1118.3,1125.4 1118.3,870.6 1085.8,870.6 1085.8,1046.9 870.2,831.4 870.2,1079.2 902.7,1079.2"/>
  <circle class="logo-gradient" cx="847.7" cy="1111.8" r="27.8"/>
  <circle class="logo-gradient" cx="866.2" cy="1245.1" r="27.8"/>
  <circle class="logo-gradient" cx="1182.9" cy="1028.1" r="27.8"/>
  <circle class="logo-gradient" cx="1287.5" cy="885.2" r="27.8"/>
</svg>
