<?xml version="1.0" encoding="utf-8"?>
<!-- Generator: Adobe Illustrator 27.1.0, SVG Export Plug-In . SVG Version: 6.00 Build 0)  -->
<svg version="1.1" id="Layer_1" xmlns="http://www.w3.org/2000/svg" xmlns:xlink="http://www.w3.org/1999/xlink" x="0px" y="0px"
	 viewBox="0 0 2000 2000" style="enable-background:new 0 0 2000 2000;" xml:space="preserve">
<style type="text/css">
	.st0{display:none;fill:none;stroke:#000000;stroke-width:11;stroke-miterlimit:10;}
	.st1{display:none;}
	.st2{display:inline;}
	.st3{fill:none;stroke:#000000;stroke-width:13;stroke-miterlimit:10;}
	.st4{display:inline;fill:none;stroke:#000000;stroke-width:13;stroke-miterlimit:10;}
	.st5{fill:url(#SVGID_1_);}
	.st6{fill:url(#SVGID_00000057129126596356084140000008886972039631556012_);}
	.st7{fill:url(#SVGID_00000121988518445717456400000002854865617375846590_);}
	.st8{fill:url(#SVGID_00000054225349201932988950000002640246040300595585_);}
	.st9{fill:url(#SVGID_00000171698796661362984260000003138204292104711830_);}
	.st10{fill:url(#SVGID_00000005263438293042332380000003666911480992282016_);}
	.st11{fill:url(#SVGID_00000168812545043538441270000009674354118751727277_);}
	.st12{fill:#110247;}
	.st13{fill:url(#SVGID_00000060008254871168184680000003669872337900476329_);}
	.st14{fill:url(#SVGID_00000024000041890151027790000015011582936084186254_);}
	.st15{fill:url(#SVGID_00000109722913089425245980000016052633419536267415_);}
	.st16{fill:url(#SVGID_00000047762095560489932760000016710801969659289787_);}
	.st17{fill:url(#SVGID_00000125582295491130962900000011755417807276104602_);}
	.st18{fill:url(#SVGID_00000141417225372226477480000011699146156649195681_);}
	.st19{fill:url(#SVGID_00000119120124462453623830000004935213120507517329_);}
	.st20{fill:#FFFFFF;}
</style>
<g>
	<g>
		<linearGradient id="SVGID_1_" gradientUnits="userSpaceOnUse" x1="1026.1033" y1="643.1422" x2="1026.1033" y2="1344.6316">
			<stop  offset="0" style="stop-color:#8504FE"/>
			<stop  offset="1" style="stop-color:#DF5EFF"/>
		</linearGradient>
		<path class="st5" d="M851.84,1253.46c34.51,34.28,73.42,64.12,115.81,88.6l0.78,0.45l25.81,14.9l26.6-15.34l0,0
			c85.92-49.61,157.52-121.21,207.12-207.12l1.35-2.35l-1.35,2.35c23.09-39.99,41.12-82.59,53.79-126.67l0,0
			c4.68-16.3,8.61-32.79,11.83-49.43l3.73-19.33h-91.35v16.25l15.86,3.53c3.65-16.39,6.46-32.98,8.41-49.68l0,0.02
			c1.49-12.62,2.49-25.31,2.98-38.02l0.38-9.8L994.24,723.63L754.91,861.82l0.39,9.81c3.19,80.13,25.86,158.62,66.03,228.21l0,0.01
			c4.07,7.04,8.3,13.98,12.71,20.8l27.31-17.62c-4.11-6.37-8.07-12.86-11.88-19.44l0,0.01c-37.53-65-58.72-138.4-61.7-213.26
			l-16.23,0.65l8.12,14.07l214.59-123.9l214.59,123.9l8.12-14.07l-16.24-0.63c-0.46,11.86-1.39,23.7-2.78,35.47l0,0.02
			c-1.82,15.59-4.44,31.08-7.85,46.38l-4.4,19.78h91.94v-16.25l-15.95-3.08c-3.03,15.72-6.74,31.26-11.15,46.63l0,0
			c-11.94,41.56-28.94,81.72-50.7,119.39l0,0c-46.73,80.94-114.26,148.48-195.22,195.22l0,0l-10.35,5.97l-10.35-5.97l0,0
			c-39.94-23.07-76.63-51.2-109.16-83.51L851.84,1253.46L851.84,1253.46z"/>
		
			<linearGradient id="SVGID_00000076592480805604642310000004510093117861131916_" gradientUnits="userSpaceOnUse" x1="994.2434" y1="642.5938" x2="994.2434" y2="1344.0833">
			<stop  offset="0" style="stop-color:#8504FE"/>
			<stop  offset="1" style="stop-color:#DF5EFF"/>
		</linearGradient>
		<path style="fill:url(#SVGID_00000076592480805604642310000004510093117861131916_);" d="M1302.81,884.86
			c0.64-10.93,0.96-21.89,0.96-32.87v-30.7l-309.53-178.7L684.72,821.3V852c0,99.22,26.2,197.02,75.81,282.95l0.01,0.02
			c0.84,1.46,1.7,2.92,2.59,4.39l-0.07-0.12c10.05,17.09,20.99,33.61,32.77,49.48l4.87,6.56h99.34v-16.25l-11.88,11.09
			c28.82,30.88,61.55,58.05,97.4,80.76l8.69,5.5l8.7-5.5c67.64-42.81,124.14-101.58,164.23-171.03l0,0
			c12.34-21.36,23.02-43.56,31.99-66.39l-30.24-11.89c-8.39,21.33-18.36,42.07-29.89,62.02l0,0
			c-37.45,64.88-90.28,119.83-153.47,159.82l8.69,13.73l8.69-13.73c-33.5-21.22-64.1-46.62-91.03-75.48l-4.82-5.16h-98.22v16.25
			l13.05-9.68c-11.09-14.94-21.39-30.49-30.85-46.58l-0.09-0.15l0.01,0.02c-0.78-1.3-1.55-2.61-2.33-3.96l-0.29-0.5l0.3,0.52
			c-46.75-80.96-71.46-173.21-71.46-266.7v-11.94l277.03-159.94l277.03,159.94V852c0,10.34-0.31,20.67-0.91,30.97L1302.81,884.86
			L1302.81,884.86z"/>
		
			<linearGradient id="SVGID_00000027573657418165885310000003354579773392342163_" gradientUnits="userSpaceOnUse" x1="994.244" y1="643.1422" x2="994.244" y2="1344.6316">
			<stop  offset="0" style="stop-color:#8504FE"/>
			<stop  offset="1" style="stop-color:#DF5EFF"/>
		</linearGradient>
		<polygon style="fill:url(#SVGID_00000027573657418165885310000003354579773392342163_);" points="902.71,1079.24 902.71,909.83 
			1118.27,1125.4 1118.27,870.61 1085.78,870.61 1085.78,1046.94 870.22,831.38 870.22,1079.24 902.71,1079.24 		"/>
		
			<linearGradient id="SVGID_00000009570588253972160940000015744805115330871455_" gradientUnits="userSpaceOnUse" x1="847.6866" y1="643.1422" x2="847.6866" y2="1344.6316">
			<stop  offset="0" style="stop-color:#8504FE"/>
			<stop  offset="1" style="stop-color:#DF5EFF"/>
		</linearGradient>
		<circle style="fill:url(#SVGID_00000009570588253972160940000015744805115330871455_);" cx="847.69" cy="1111.84" r="27.76"/>
		
			<linearGradient id="SVGID_00000071539558369651287720000006943546859470712218_" gradientUnits="userSpaceOnUse" x1="866.2128" y1="643.1422" x2="866.2128" y2="1344.6316">
			<stop  offset="0" style="stop-color:#8504FE"/>
			<stop  offset="1" style="stop-color:#DF5EFF"/>
		</linearGradient>
		<circle style="fill:url(#SVGID_00000071539558369651287720000006943546859470712218_);" cx="866.21" cy="1245.06" r="27.76"/>
		
			<linearGradient id="SVGID_00000105391556084356608930000002957150960936118660_" gradientUnits="userSpaceOnUse" x1="1182.9302" y1="643.1422" x2="1182.9302" y2="1344.6316">
			<stop  offset="0" style="stop-color:#8504FE"/>
			<stop  offset="1" style="stop-color:#DF5EFF"/>
		</linearGradient>
		<circle style="fill:url(#SVGID_00000105391556084356608930000002957150960936118660_);" cx="1182.93" cy="1028.09" r="27.76"/>
		
			<linearGradient id="SVGID_00000017514435817739745140000014150816223879320971_" gradientUnits="userSpaceOnUse" x1="1287.5212" y1="643.1422" x2="1287.5212" y2="1344.6316">
			<stop  offset="0" style="stop-color:#8504FE"/>
			<stop  offset="1" style="stop-color:#DF5EFF"/>
		</linearGradient>
		<circle style="fill:url(#SVGID_00000017514435817739745140000014150816223879320971_);" cx="1287.52" cy="885.17" r="27.76"/>
	</g>
</g>
</svg>
