<?xml version="1.0" encoding="utf-8"?>
<!-- Generator: Adobe Illustrator 27.1.0, SVG Export Plug-In . SVG Version: 6.00 Build 0)  -->
<svg version="1.1" id="Layer_1" xmlns="http://www.w3.org/2000/svg" xmlns:xlink="http://www.w3.org/1999/xlink" x="0px" y="0px"
	 viewBox="0 0 2000 2000" style="enable-background:new 0 0 2000 2000;" xml:space="preserve">
<style type="text/css">
	.st0{display:none;fill:none;stroke:#000000;stroke-width:11;stroke-miterlimit:10;}
	.st1{display:none;}
	.st2{display:inline;}
	.st3{fill:none;stroke:#000000;stroke-width:13;stroke-miterlimit:10;}
	.st4{display:inline;fill:none;stroke:#000000;stroke-width:13;stroke-miterlimit:10;}
	.st5{fill:url(#SVGID_1_);}
	.st6{fill:url(#SVGID_00000139295702362290184700000015941105513899603602_);}
	.st7{fill:url(#SVGID_00000045607445460596710040000003844369557064334010_);}
	.st8{fill:url(#SVGID_00000077284922441163989670000006185598896111342235_);}
	.st9{fill:url(#SVGID_00000130633176222604713230000003302989243183451324_);}
	.st10{fill:url(#SVGID_00000136389890999456472250000005979300635322113421_);}
	.st11{fill:url(#SVGID_00000047776126034233789540000004736581920305454010_);}
	.st12{fill:#110247;}
	.st13{fill:url(#SVGID_00000176762584277972564930000017110711886523683237_);}
	.st14{fill:url(#SVGID_00000033356800566966384740000011879158304205494418_);}
	.st15{fill:url(#SVGID_00000095315973520702420270000013394022797480998570_);}
	.st16{fill:url(#SVGID_00000079449892766502117570000014815140587536058507_);}
	.st17{fill:url(#SVGID_00000135687098214328156700000006516983869680030106_);}
	.st18{fill:url(#SVGID_00000133510189290330842910000018227938571391418247_);}
	.st19{fill:url(#SVGID_00000051365366604788815050000008526179852967391407_);}
	.st20{fill:#FFFFFF;}
</style>
<g>
	<g>
		<path class="st12" d="M757.85,1064.52c-1.42-0.61-2.73-1.37-3.95-2.28s-2.48-2.12-3.79-3.64c-5.36-6.17-10.95-12.7-16.77-19.58
			c-5.82-6.88-11.69-13.81-17.6-20.79c-5.92-6.98-11.79-13.89-17.6-20.72c-5.82-6.83-11.36-13.38-16.62-19.65
			c-1.21-1.21-2.73-1.82-4.55-1.82c-1.62,0-3.06,0.41-4.33,1.21c-1.27,0.81-1.95,2.07-2.05,3.79v84.68h-16.54v-85.9l0.15-0.46
			c0.2-3.13,0.99-5.97,2.35-8.5c1.37-2.53,3.13-4.65,5.31-6.37c2.17-1.72,4.6-3.04,7.28-3.95c2.68-0.91,5.39-1.37,8.12-1.37
			c3.24,0,6.35,0.63,9.33,1.9c2.98,1.27,5.59,3.36,7.82,6.3c11.43,13.46,22.81,26.86,34.15,40.22
			c11.33,13.36,22.76,26.81,34.3,40.37c0.5,0.51,1.19,0.96,2.05,1.37c0.86,0.41,1.69,0.61,2.5,0.61c1.42,0,2.73-0.46,3.95-1.37
			c1.21-0.91,1.97-2.12,2.28-3.64v-84.68h16.69v85.9c-0.3,3.14-1.17,5.97-2.58,8.5c-1.42,2.53-3.16,4.7-5.24,6.53
			c-2.08,1.82-4.43,3.21-7.06,4.17c-2.63,0.96-5.36,1.44-8.2,1.44c-1.52,0-3.11-0.18-4.78-0.53
			C760.81,1065.91,759.27,1065.34,757.85,1064.52z"/>
		<path class="st12" d="M852.25,985c-2.43,2.53-4.35,5.41-5.77,8.65c-1.42,3.24-2.12,6.73-2.12,10.47v0.76h113.82v16.69H844.36v0.76
			c0,3.64,0.71,7.08,2.12,10.32c1.42,3.24,3.36,6.07,5.84,8.5c2.48,2.43,5.36,4.35,8.65,5.77c3.29,1.42,6.75,2.12,10.4,2.12h86.81
			v16.69h-86.81c-6.07,0-11.76-1.16-17.07-3.49c-5.31-2.33-9.94-5.46-13.89-9.41c-3.95-3.95-7.06-8.57-9.33-13.89
			c-2.28-5.31-3.42-10.95-3.42-16.92v-17.91c0-6.07,1.16-11.74,3.49-17c2.33-5.26,5.46-9.86,9.41-13.81
			c3.95-3.95,8.57-7.06,13.89-9.33c5.31-2.28,10.95-3.41,16.92-3.41h86.81v16.54h-86.81c-3.85,0-7.39,0.71-10.62,2.12
			C857.51,980.65,854.68,982.57,852.25,985z"/>
		<path class="st12" d="M1121.78,1011.56c3.24,2.94,5.77,6.35,7.59,10.24c1.82,3.9,2.73,8.07,2.73,12.52
			c0,4.35-0.89,8.45-2.66,12.29c-1.77,3.85-4.17,7.19-7.21,10.02c-3.04,2.83-6.55,5.06-10.55,6.68c-4,1.62-8.17,2.43-12.52,2.43
			h-103.2V960.57h102.74c3.13,0,6.25,0.38,9.33,1.14c3.08,0.76,5.97,1.87,8.65,3.34c2.68,1.47,5.11,3.29,7.29,5.46
			c2.17,2.18,3.92,4.68,5.24,7.51c1.92,3.85,2.88,7.84,2.88,11.99c0,4.05-0.89,7.99-2.66,11.84
			C1127.67,1005.69,1125.12,1008.93,1121.78,1011.56z M1012.51,1002.91h86.81c1.92,0,3.84-0.3,5.77-0.91
			c1.92-0.61,3.67-1.47,5.24-2.58c1.57-1.11,2.83-2.45,3.79-4.02c0.96-1.57,1.44-3.36,1.44-5.39c0-2.02-0.51-3.82-1.52-5.39
			c-1.01-1.57-2.3-2.91-3.87-4.02c-1.57-1.11-3.37-1.97-5.39-2.58c-2.03-0.61-4.05-0.91-6.07-0.91h-86.2V1002.91z M1114.34,1039.94
			c0.81-1.62,1.21-3.44,1.21-5.46c0-1.92-0.43-3.79-1.29-5.62c-0.86-1.82-2.05-3.41-3.57-4.78c-1.52-1.37-3.24-2.45-5.16-3.26
			c-1.92-0.81-3.95-1.21-6.07-1.21h-86.96v29.44h86.96c3.14,0,6.09-0.83,8.88-2.5C1111.13,1044.87,1113.13,1042.67,1114.34,1039.94z
			"/>
		<path class="st12" d="M1177.93,1052.99c-4.05-4.05-7.21-8.7-9.49-13.96c-2.28-5.26-3.41-10.93-3.41-17v-61.46h16.69v61.46
			c0,3.64,0.71,7.11,2.12,10.4c1.42,3.29,3.34,6.17,5.77,8.65c2.43,2.48,5.26,4.43,8.5,5.84c3.24,1.42,6.73,2.12,10.47,2.12h46.9
			c3.64,0,7.11-0.71,10.4-2.12c3.29-1.42,6.17-3.34,8.65-5.77c2.48-2.43,4.42-5.26,5.84-8.5c1.42-3.24,2.12-6.68,2.12-10.32v-61.77
			h16.69v61.46c0,6.07-1.14,11.74-3.41,17c-2.28,5.26-5.44,9.92-9.49,13.96c-3.95,3.95-8.55,7.06-13.81,9.33
			c-5.26,2.28-10.93,3.41-17,3.41h-46.74c-6.07,0-11.74-1.14-17-3.41C1186.48,1060.05,1181.88,1056.94,1177.93,1052.99z"/>
		<path class="st12" d="M1351.1,960.57v61.31c0,3.85,0.71,7.39,2.12,10.62c1.42,3.24,3.34,6.07,5.77,8.5
			c2.43,2.43,5.26,4.38,8.5,5.84c3.24,1.47,6.78,2.2,10.62,2.2h86.66v16.69h-86.66c-6.07,0-11.74-1.14-17-3.41
			c-5.26-2.28-9.92-5.44-13.96-9.49c-3.95-3.95-7.06-8.57-9.33-13.89c-2.28-5.31-3.41-11-3.41-17.07v-61.31H1351.1z"/>
		<path class="st12" d="M1621.69,973.31c3.95,4.05,7.08,8.7,9.41,13.96c2.33,5.26,3.49,10.88,3.49,16.85v61.62h-16.69v-45.68
			h-102.59v45.68h-16.54v-61.62c0-6.07,1.16-11.74,3.49-17c2.33-5.26,5.46-9.86,9.41-13.81c3.95-3.95,8.55-7.06,13.81-9.33
			c5.26-2.28,10.88-3.41,16.85-3.41h48.57c5.97,0,11.58,1.14,16.85,3.41C1612.99,966.26,1617.65,969.37,1621.69,973.31z
			 M1542.02,977.11c-3.54,0-6.91,0.71-10.09,2.12c-3.19,1.42-5.99,3.31-8.42,5.69c-2.43,2.38-4.38,5.16-5.84,8.35
			c-1.47,3.19-2.25,6.55-2.35,10.09h102.59c-0.1-3.54-0.89-6.91-2.35-10.09c-1.47-3.19-3.41-5.97-5.84-8.35
			c-2.43-2.38-5.26-4.27-8.5-5.69c-3.24-1.42-6.68-2.12-10.32-2.12H1542.02z"/>
	</g>
	<g>
		<linearGradient id="SVGID_1_" gradientUnits="userSpaceOnUse" x1="501.981" y1="857.2353" x2="501.981" y2="1137.8734">
			<stop  offset="0" style="stop-color:#8504FE"/>
			<stop  offset="1" style="stop-color:#DF5EFF"/>
		</linearGradient>
		<path class="st5" d="M432.26,1101.4c13.81,13.71,29.37,25.65,46.33,35.44l0.31,0.18l10.33,5.96l10.64-6.14l0,0
			c34.37-19.85,63.02-48.49,82.86-82.86l0.54-0.94l-0.54,0.94c9.24-16,16.45-33.04,21.52-50.68l0,0c1.87-6.52,3.45-13.12,4.73-19.78
			l1.49-7.73h-36.55v6.5l6.34,1.41c1.46-6.56,2.58-13.19,3.36-19.87l0,0.01c0.6-5.05,0.99-10.12,1.19-15.21l0.15-3.92l-95.75-55.28
			l-95.75,55.28l0.16,3.92c1.28,32.06,10.34,63.46,26.41,91.3l0,0c1.63,2.82,3.32,5.59,5.08,8.32l10.92-7.05
			c-1.65-2.55-3.23-5.14-4.75-7.78l0,0c-15.01-26.01-23.49-55.37-24.68-85.32l-6.49,0.26l3.25,5.63l85.85-49.57l85.85,49.57
			l3.25-5.63l-6.5-0.25c-0.19,4.75-0.56,9.48-1.11,14.19l0,0.01c-0.73,6.24-1.78,12.43-3.14,18.56l-1.76,7.91h36.78v-6.5l-6.38-1.23
			c-1.21,6.29-2.7,12.51-4.46,18.65l0,0c-4.78,16.63-11.58,32.69-20.28,47.76l0,0c-18.69,32.38-45.71,59.4-78.1,78.1l0,0l-4.14,2.39
			l-4.14-2.39l0,0c-15.98-9.23-30.66-20.48-43.67-33.41L432.26,1101.4L432.26,1101.4z"/>
		
			<linearGradient id="SVGID_00000106835705721868849870000011816325761727750579_" gradientUnits="userSpaceOnUse" x1="489.2351" y1="857.0159" x2="489.2351" y2="1137.6541">
			<stop  offset="0" style="stop-color:#8504FE"/>
			<stop  offset="1" style="stop-color:#DF5EFF"/>
		</linearGradient>
		<path style="fill:url(#SVGID_00000106835705721868849870000011816325761727750579_);" d="M612.68,953.94
			c0.26-4.37,0.38-8.76,0.38-13.15v-12.28l-123.83-71.49l-123.83,71.49v12.28c0,39.69,10.48,78.82,30.33,113.2l0,0.01
			c0.34,0.58,0.68,1.17,1.03,1.76l-0.03-0.05c4.02,6.84,8.4,13.44,13.11,19.79l1.95,2.63h39.74v-6.5l-4.75,4.43
			c11.53,12.35,24.62,23.23,38.96,32.31l3.48,2.2l3.48-2.2c27.06-17.13,49.66-40.64,65.7-68.42l0,0c4.94-8.55,9.21-17.43,12.8-26.56
			l-12.1-4.76c-3.35,8.53-7.35,16.83-11.96,24.81l0,0c-14.98,25.96-36.12,47.94-61.4,63.94l3.48,5.49l3.48-5.49
			c-13.4-8.49-25.64-18.65-36.42-30.2l-1.93-2.07h-39.3v6.5l5.22-3.87c-4.44-5.98-8.56-12.2-12.34-18.64l-0.03-0.06l0.01,0.01
			c-0.31-0.52-0.62-1.04-0.93-1.58l-0.12-0.2l0.12,0.21c-18.7-32.39-28.59-69.29-28.59-106.7v-4.78l110.83-63.99l110.83,63.99v4.78
			c0,4.14-0.12,8.27-0.36,12.39L612.68,953.94L612.68,953.94z"/>
		
			<linearGradient id="SVGID_00000106136868634095992570000002408304998213080998_" gradientUnits="userSpaceOnUse" x1="489.2354" y1="857.2353" x2="489.2354" y2="1137.8734">
			<stop  offset="0" style="stop-color:#8504FE"/>
			<stop  offset="1" style="stop-color:#DF5EFF"/>
		</linearGradient>
		<polygon style="fill:url(#SVGID_00000106136868634095992570000002408304998213080998_);" points="452.62,1031.7 452.62,963.93 
			538.85,1050.17 538.85,948.24 525.85,948.24 525.85,1018.78 439.62,932.54 439.62,1031.7 452.62,1031.7 		"/>
		
			<linearGradient id="SVGID_00000057828446569181881400000010345386570775480989_" gradientUnits="userSpaceOnUse" x1="430.6035" y1="857.2353" x2="430.6035" y2="1137.8734">
			<stop  offset="0" style="stop-color:#8504FE"/>
			<stop  offset="1" style="stop-color:#DF5EFF"/>
		</linearGradient>
		<circle style="fill:url(#SVGID_00000057828446569181881400000010345386570775480989_);" cx="430.6" cy="1044.74" r="11.11"/>
		
			<linearGradient id="SVGID_00000170278039087019674950000005802386278304439715_" gradientUnits="userSpaceOnUse" x1="438.0151" y1="857.2353" x2="438.0151" y2="1137.8734">
			<stop  offset="0" style="stop-color:#8504FE"/>
			<stop  offset="1" style="stop-color:#DF5EFF"/>
		</linearGradient>
		<circle style="fill:url(#SVGID_00000170278039087019674950000005802386278304439715_);" cx="438.02" cy="1098.04" r="11.11"/>
		
			<linearGradient id="SVGID_00000034773265273643474840000017887979412554559370_" gradientUnits="userSpaceOnUse" x1="564.7212" y1="857.2353" x2="564.7212" y2="1137.8734">
			<stop  offset="0" style="stop-color:#8504FE"/>
			<stop  offset="1" style="stop-color:#DF5EFF"/>
		</linearGradient>
		<circle style="fill:url(#SVGID_00000034773265273643474840000017887979412554559370_);" cx="564.72" cy="1011.24" r="11.11"/>
		
			<linearGradient id="SVGID_00000164501965497055561020000009198431091660926133_" gradientUnits="userSpaceOnUse" x1="606.564" y1="857.2353" x2="606.564" y2="1137.8734">
			<stop  offset="0" style="stop-color:#8504FE"/>
			<stop  offset="1" style="stop-color:#DF5EFF"/>
		</linearGradient>
		<circle style="fill:url(#SVGID_00000164501965497055561020000009198431091660926133_);" cx="606.56" cy="954.06" r="11.11"/>
	</g>
</g>
</svg>
